<svg width="100" height="100" viewBox="0 0 100 100" fill="none" xmlns="http://www.w3.org/2000/svg">
<path fill-rule="evenodd" clip-rule="evenodd" d="M49.7508 72.4914C51.2882 72.4914 52.5345 73.7377 52.5345 75.2751C52.5345 76.8124 51.2882 78.0587 49.7508 78.0587C48.2135 78.0587 46.9672 76.8124 46.9672 75.2751C46.9672 73.7377 48.2135 72.4914 49.7508 72.4914ZM49.7508 68.3128C45.9056 68.3128 42.7885 71.4299 42.7885 75.2751C42.7885 79.1203 45.9056 82.2374 49.7508 82.2374C53.596 82.2374 56.7132 79.1203 56.7132 75.2751C56.7132 71.4299 53.596 68.3128 49.7508 68.3128ZM12.0556 39.9018C12.917 40.7813 14.3172 40.8296 15.2371 40.0115C27.5276 28.6934 44.5882 24.1243 60.8902 27.7848L64.7136 23.9614C46.167 18.7729 26.2563 23.5558 12.09 36.6024C11.6351 37.0299 11.3743 37.6246 11.3678 38.2488C11.3613 38.8731 11.6097 39.473 12.0556 39.91V39.9018ZM79.6814 30.6503L76.3099 34.0185C79.149 35.7535 81.8125 37.7606 84.2629 40.0115C85.2094 40.8355 86.6395 40.7577 87.491 39.8358C88.3424 38.9139 88.3066 37.4821 87.41 36.604C85.0121 34.3975 82.4255 32.4053 79.6797 30.6503H79.6814ZM49.7492 37.3719C39.9382 37.3632 30.465 40.9552 23.1263 47.4667C22.6435 47.8907 22.3575 48.4953 22.3358 49.1374C22.314 49.7796 22.5586 50.4022 23.0117 50.8578C23.8596 51.7173 25.2289 51.7717 26.1424 50.9822C31.8088 45.9383 38.944 42.8453 46.4989 42.1581L51.2212 37.4358C50.7333 37.4227 50.247 37.3719 49.7492 37.3719ZM68.3553 41.9764L64.9003 45.4281C67.9676 46.8726 70.8132 48.7472 73.3511 50.9953C74.265 51.7843 75.6343 51.7292 76.4818 50.8692C76.9349 50.4133 77.1796 49.7905 77.1578 49.1481C77.1361 48.5057 76.85 47.9008 76.3672 47.4765C73.9276 45.3274 71.2375 43.4806 68.3553 41.9764ZM56.5281 53.8035L52.6196 57.7055C56.2075 58.218 59.5893 59.6938 62.4049 61.9759C63.3212 62.7339 64.6629 62.6737 65.5078 61.8368C65.9714 61.3758 66.2189 60.7406 66.1896 60.0875C66.1603 59.4344 65.8569 58.824 65.3539 58.4063C62.7549 56.2881 59.7521 54.721 56.5281 53.8003V53.8035ZM18.9001 83.8781L93.1639 9.61428C93.8117 9.04303 94.0886 8.15924 93.8826 7.32048C93.6765 6.48172 93.0216 5.82683 92.1829 5.62078C91.3441 5.41472 90.4603 5.69162 89.8891 6.33943L15.6138 80.5967C14.8036 81.5155 14.8472 82.9058 15.7134 83.772C16.5795 84.6382 17.9698 84.6818 18.8886 83.8716L18.9001 83.8781Z" fill="#263238"/>
</svg>
